<?xml version="1.0" encoding="utf-8"?>
<!-- Generator: Adobe Illustrator 19.0.0, SVG Export Plug-In . SVG Version: 6.00 Build 0)  -->
<svg version="1.1" id="Layer_1" xmlns="http://www.w3.org/2000/svg" xmlns:xlink="http://www.w3.org/1999/xlink" x="0px" y="0px"
	 viewBox="0 0 500 500" style="enable-background:new 0 0 500 500;" xml:space="preserve">
<style type="text/css">
	.st0{fill:#BFA161;}
	.st1{fill:#1F1917;}
</style>
<g id="XMLID_42_">
	<path id="XMLID_44_" class="st0" d="M272,231.3c-4.2,3-9.8,3.4-14,1.5c0,0-1.2-0.4-2.3-1.6c-0.9-1.1-24.7-26.7-24.7-26.7l-0.1-0.1
		c7.3,1.3,15.4-2.1,19.5-8.2c4.1-5.8,4-14.1,0.1-19.9c-4.7-6.3-13.8-8.4-21.5-7.4c-13.3,1.8-22.8,13-25.7,24.8
		c-3,13.4-0.9,26.1,3.9,38c1.1,2.5,2.6,5.1,4.4,7.4c-14-5.8-26.3-16.5-32.8-30.9c-7.2-15.5-7-35.1,1.5-50.8
		c6.7-12.1,18.6-23.4,33.2-28.2c15.4-6,36-4.8,51,3.3c18.2,8.6,31.9,30.2,32,49.4C297.2,201.8,288,219.8,272,231.3"/>
	<path id="XMLID_48_" class="st0" d="M221,238.9c-6.8-7-12.3-16.1-8.1-25.5c3.7-7.2,6.9-14.6,8.5-22.9c0.6,8.7,6.2,16.5,8.8,24.8
		c1,4,1.1,8.2-0.5,12.4c-1.8,4.5-4.7,8.4-8.1,11.9L221,238.9L221,238.9z"/>
	<path id="XMLID_66_" class="st1" d="M135.4,317.6h-18.1c-4-6-7.6-11.2-10.9-15.5c-3.2-4.4-6.7-8.9-10.5-13.5h-6.9v20.3
		c0,1,0.2,2,0.5,2.8c0.3,0.8,1.1,1.4,2.2,1.8c0.6,0.2,1.6,0.4,3,0.6c1.4,0.2,2.6,0.3,3.6,0.3v3.2H70v-3.2c0.8-0.1,1.9-0.2,3.3-0.3
		c1.4-0.1,2.4-0.3,3-0.6c0.9-0.4,1.6-1,2.1-1.7c0.4-0.8,0.6-1.7,0.6-2.9v-46.3c0-1.1-0.2-2-0.5-2.8c-0.3-0.8-1-1.4-2.2-1.9
		c-0.8-0.3-1.8-0.5-3.1-0.7c-1.3-0.2-2.3-0.4-3.2-0.4v-3.2h31c2.8,0,5.5,0.3,8,0.8c2.5,0.6,4.7,1.4,6.8,2.7c2,1.2,3.5,2.8,4.7,4.7
		c1.2,1.9,1.8,4.3,1.8,7c0,2.5-0.4,4.7-1.2,6.5c-0.8,1.9-2,3.5-3.5,4.9c-1.4,1.3-3.1,2.4-5.1,3.4c-2,1-4.2,1.8-6.6,2.4
		c3.3,4.2,6.1,7.7,8.3,10.6c2.2,2.9,4.9,6.3,8.1,10.4c1.4,1.8,2.6,3.1,3.8,4c1.1,0.8,2.2,1.6,3.3,2.1c0.8,0.4,1.8,0.7,3.1,0.9
		c1.2,0.2,2.2,0.3,3.1,0.4L135.4,317.6L135.4,317.6z M110.5,269.8c0-3.9-1.2-7-3.5-9.2c-2.3-2.3-5.6-3.4-9.9-3.4h-8v27.5h6.2
		c4.3,0,8-1.3,10.9-4C109,278,110.5,274.4,110.5,269.8L110.5,269.8z M178.2,307.1c-2,3.6-4.6,6.4-7.8,8.5c-3.3,2.1-7.1,3.2-11.3,3.2
		c-3.8,0-7-0.6-9.9-1.9c-2.8-1.3-5.2-3-7-5.1c-1.8-2.2-3.2-4.7-4.1-7.6c-0.9-2.9-1.3-5.9-1.3-9.2c0-2.9,0.5-5.7,1.4-8.5
		c1-2.8,2.4-5.3,4.2-7.5c1.8-2.1,4-3.9,6.7-5.2c2.7-1.3,5.7-2,9-2c3.4,0,6.3,0.5,8.8,1.5c2.4,1,4.4,2.4,5.9,4.2
		c1.4,1.7,2.5,3.7,3.2,6c0.7,2.3,1.1,4.8,1.1,7.4v3h-30.9c0,2.9,0.3,5.6,0.9,7.9c0.6,2.4,1.5,4.5,2.8,6.3c1.2,1.7,2.8,3.1,4.8,4.1
		c2,1,4.4,1.5,7.1,1.5c2.8,0,5.2-0.6,7.3-1.9c2-1.2,4-3.5,5.9-6.8L178.2,307.1L178.2,307.1z M167.7,290.1c0-1.7-0.1-3.5-0.5-5.4
		c-0.3-1.9-0.8-3.5-1.4-4.8c-0.7-1.4-1.7-2.5-3-3.4c-1.3-0.9-2.9-1.3-4.9-1.3c-3.3,0-6.1,1.3-8.3,3.9c-2.2,2.6-3.4,6.3-3.6,11H167.7
		z M204.6,317.6h-22v-2.9c0.7-0.1,1.4-0.1,2.2-0.2c0.8-0.1,1.4-0.2,2-0.3c0.9-0.3,1.5-0.7,1.9-1.4c0.4-0.7,0.7-1.5,0.6-2.5
		l-0.7-47.6c0-0.5-0.3-2.1-0.5-3.2c-0.1-0.5-0.3-0.9-0.4-1c-0.1-0.2-0.2-0.3-0.4-0.5c-0.8-0.7,0.2,0.3-0.5-0.4
		c-0.5-0.4,0.2-0.2-1.3-0.4c-1.4-0.3-3.9,0.4-4.8,0.3l-0.1-3.1l16.4-0.9l0.8,0.6l0.1,55.6c0,1,0.2,1.8,0.6,2.5
		c0.4,0.7,1,1.2,1.9,1.5c0.7,0.3,1.3,0.5,2,0.7c0.7,0.1,1.4,0.3,2.2,0.3V317.6L204.6,317.6z M232.8,317.6h-22.4v-3
		c0.7-0.1,1.5-0.1,2.2-0.2c0.8-0.1,1.4-0.2,2-0.4c0.9-0.3,1.5-0.7,2-1.4c0.4-0.7,0.6-1.5,0.6-2.6v-27.3c0-1-0.2-1.8-0.7-2.6
		c-0.4-0.8-1.1-1.5-1.9-2c-0.6-0.4-1.4-0.7-2.6-0.9c-1.1-0.3-2.1-0.4-3.1-0.5v-2.9l16.3-1l0.7,0.6v36c0,1,0.2,1.9,0.6,2.6
		c0.4,0.7,1.1,1.2,2,1.5c0.7,0.3,1.4,0.5,2,0.7c0.7,0.2,1.4,0.3,2.2,0.3L232.8,317.6L232.8,317.6z M226.9,255.5
		c0,1.7-0.6,3.2-1.8,4.4c-1.2,1.3-2.6,1.9-4.3,1.9c-1.6,0-3-0.6-4.1-1.8c-1.2-1.2-1.8-2.6-1.8-4.1c0-1.7,0.6-3.1,1.8-4.3
		c1.2-1.2,2.6-1.8,4.1-1.8c1.8,0,3.3,0.6,4.4,1.7C226.3,252.6,226.9,253.9,226.9,255.5z M282.7,316.8c-1.5,0.5-2.8,0.9-3.9,1.2
		c-1.1,0.3-2.4,0.5-3.8,0.5c-2.5,0-4.4-0.6-5.9-1.6c-1.5-1.1-2.4-2.7-2.8-4.8H266c-2,2.2-4.2,3.8-6.6,5c-2.3,1.1-5.2,1.7-8.5,1.7
		c-3.5,0-6.4-1-8.6-3.1c-2.3-2.1-3.4-4.7-3.4-8c0-1.7,0.3-3.3,0.8-4.6c0.5-1.4,1.3-2.6,2.3-3.7c0.8-0.9,1.8-1.7,3.1-2.4
		c1.3-0.7,2.5-1.3,3.6-1.7c1.4-0.5,4.3-1.5,8.6-2.9c4.3-1.4,7.3-2.5,8.8-3.3v-4.5c0-0.4-0.1-1.1-0.3-2.3c-0.2-1.1-0.5-2.2-1.1-3.2
		c-0.6-1.1-1.5-2.1-2.7-2.9c-1.1-0.8-2.8-1.2-4.9-1.2c-1.5,0-2.8,0.2-4,0.7c-1.2,0.5-2.1,1-2.6,1.5c0,0.6,0.1,1.5,0.5,2.7
		c0.3,1.2,0.4,2.3,0.4,3.3c0,1-0.5,2-1.5,2.9c-1,0.9-2.4,1.3-4.2,1.3c-1.6,0-2.7-0.5-3.5-1.6c-0.7-1.1-1.1-2.3-1.1-3.6
		c0-1.4,0.5-2.7,1.5-4c1-1.3,2.4-2.4,4-3.4c1.4-0.8,3.1-1.6,5.1-2.2c2-0.6,4-0.9,5.9-0.9c2.6,0,5,0.2,6.9,0.5c2,0.3,3.7,1.1,5.4,2.2
		c1.6,1.1,2.8,2.6,3.7,4.5c0.8,1.9,1.3,4.4,1.3,7.4c0,4.3,0,8.1-0.1,11.5c-0.1,3.3-0.1,7-0.1,10.9c0,1.2,0.2,2.1,0.6,2.8
		c0.4,0.7,1.1,1.3,2,1.8c0.5,0.3,1.2,0.4,2.2,0.4c1,0,2.1,0,3.1,0V316.8L282.7,316.8z M266.2,292.9c-2.7,0.8-5,1.5-7.1,2.2
		c-2,0.7-3.9,1.6-5.6,2.7c-1.6,1-2.8,2.2-3.7,3.6c-0.9,1.4-1.4,3.1-1.4,5c0,2.5,0.7,4.3,2.1,5.5c1.4,1.2,3.1,1.8,5.2,1.8
		c2.2,0,4.2-0.5,5.9-1.6c1.7-1,3.1-2.3,4.3-3.7L266.2,292.9L266.2,292.9z M338.8,317.6H316v-3c0.7-0.1,1.5-0.1,2.4-0.2
		c0.9-0.1,1.6-0.2,2.2-0.4c0.9-0.3,1.5-0.7,2-1.4c0.4-0.7,0.6-1.6,0.6-2.6v-22.9c0-3.2-0.8-5.6-2.3-7.3c-1.6-1.7-3.5-2.6-5.7-2.6
		c-1.7,0-3.2,0.2-4.6,0.7c-1.4,0.5-2.6,1.1-3.7,1.8c-1,0.7-1.9,1.4-2.5,2.2c-0.6,0.8-1.1,1.4-1.3,1.9v25.6c0,1,0.2,1.9,0.7,2.5
		c0.4,0.7,1.1,1.2,2,1.5c0.7,0.3,1.4,0.5,2.1,0.7c0.8,0.2,1.6,0.3,2.4,0.3v3h-22.8v-3c0.7-0.1,1.5-0.1,2.2-0.2
		c0.8-0.1,1.4-0.2,2-0.4c0.9-0.3,1.5-0.7,2-1.4c0.4-0.7,0.6-1.6,0.6-2.6v-27.5c0-1-0.2-2-0.7-2.8c-0.5-0.9-1.1-1.6-1.9-2.1
		c-0.6-0.4-1.3-0.6-2.1-0.8c-0.8-0.2-1.7-0.3-2.6-0.3v-2.9l15.5-1l0.7,0.6v6.3h0.2c0.8-0.7,1.7-1.6,2.8-2.6c1.1-1,2.2-1.8,3.2-2.5
		c1.2-0.7,2.6-1.3,4.2-1.8c1.6-0.5,3.4-0.7,5.4-0.7c4.5,0,7.8,1.3,10,4c2.2,2.7,3.2,6.2,3.2,10.6v23.2c0,1.1,0.2,1.9,0.6,2.6
		c0.4,0.6,1,1.2,1.9,1.5c0.8,0.3,1.4,0.5,2,0.6c0.6,0.1,1.3,0.2,2.3,0.3L338.8,317.6L338.8,317.6z M366.1,318.7
		c-6.8,0-12-2.1-15.9-6.4c-3.8-4.3-5.7-10-5.7-17.2c0-3.1,0.5-6.1,1.5-8.8c1-2.7,2.5-5.2,4.5-7.4c1.9-2.1,4.2-3.9,7-5.2
		c2.8-1.3,5.9-2,9.2-2c4.6,0,8.3,1,11.2,3.1c2.9,2.1,4.3,4.9,4.3,8.6c0,1.5-0.4,2.8-1.1,4c-0.8,1.2-2,1.7-3.7,1.7
		c-1.9,0-3.3-0.5-4.3-1.4c-1-0.9-1.5-1.9-1.5-3c0-1.4,0.2-2.7,0.6-4.2c0.4-1.4,0.6-2.5,0.7-3.1c-0.6-0.9-1.4-1.6-2.5-1.9
		c-1.1-0.3-2.3-0.5-3.6-0.5c-1.5,0-3,0.3-4.3,0.9c-1.4,0.6-2.7,1.8-4,3.4c-1.2,1.5-2.1,3.5-2.8,6.1c-0.7,2.6-1.1,5.6-1.1,9.2
		c0,5.6,1.3,10.2,3.9,13.7c2.6,3.5,6,5.3,10.2,5.3c3.1,0,5.6-0.7,7.7-2.1c2.1-1.4,4-3.5,5.7-6.4l3,1.9c-2.1,3.6-4.8,6.4-8.2,8.4
		C373.3,317.7,369.8,318.7,366.1,318.7L366.1,318.7z M430,307.1c-2,3.6-4.6,6.4-7.8,8.5c-3.3,2.1-7.1,3.2-11.3,3.2
		c-3.8,0-7-0.6-9.9-1.9c-2.8-1.3-5.2-3-7-5.1c-1.8-2.2-3.2-4.7-4.1-7.6c-0.9-2.9-1.3-5.9-1.3-9.2c0-2.9,0.5-5.7,1.4-8.5
		c1-2.8,2.4-5.3,4.2-7.5c1.8-2.1,4-3.9,6.7-5.2c2.7-1.3,5.7-2,9-2c3.4,0,6.3,0.5,8.8,1.5c2.4,1,4.4,2.4,5.9,4.2
		c1.5,1.7,2.5,3.7,3.2,6c0.7,2.3,1.1,4.8,1.1,7.4v3H398c0,2.9,0.3,5.6,0.9,7.9c0.6,2.4,1.5,4.5,2.8,6.3c1.2,1.7,2.8,3.1,4.8,4.1
		c2,1,4.4,1.5,7.1,1.5c2.8,0,5.2-0.6,7.3-1.9c2-1.2,4-3.5,5.9-6.8L430,307.1L430,307.1z M419.6,290.1c0-1.7-0.1-3.5-0.5-5.4
		c-0.3-1.9-0.8-3.5-1.4-4.8c-0.7-1.4-1.7-2.5-3-3.4c-1.3-0.9-2.9-1.3-4.9-1.3c-3.3,0-6.1,1.3-8.3,3.9c-2.2,2.6-3.4,6.3-3.6,11H419.6
		z"/>
	<path id="XMLID_67_" class="st1" d="M83.2,374H70v-1.3c0.4,0,0.9-0.1,1.6-0.1c0.7,0,1.2-0.1,1.5-0.2c0.4-0.2,0.8-0.4,1-0.7
		c0.2-0.3,0.3-0.7,0.3-1.2v-19.1c0-0.4-0.1-0.8-0.2-1.1c-0.1-0.3-0.5-0.5-1.1-0.7c-0.4-0.1-0.9-0.3-1.5-0.4
		c-0.6-0.1-1.1-0.2-1.5-0.2v-1.3h13.1v1.3c-0.4,0-0.9,0.1-1.5,0.1c-0.6,0.1-1.1,0.2-1.5,0.3c-0.5,0.2-0.9,0.4-1,0.7
		c-0.2,0.3-0.3,0.7-0.3,1.1v19.1c0,0.4,0.1,0.8,0.3,1.1c0.2,0.3,0.5,0.6,1,0.8c0.3,0.1,0.8,0.2,1.4,0.3c0.6,0.1,1.2,0.2,1.7,0.2V374
		z"/>
	<path id="XMLID_68_" class="st1" d="M109.7,374h-9.9v-1.2c0.3,0,0.7-0.1,1-0.1c0.4,0,0.7-0.1,0.9-0.2c0.4-0.1,0.7-0.3,0.8-0.6
		c0.2-0.3,0.3-0.6,0.3-1.1v-9.4c0-1.3-0.3-2.3-1-3c-0.7-0.7-1.5-1.1-2.5-1.1c-0.7,0-1.4,0.1-2,0.3c-0.6,0.2-1.1,0.5-1.6,0.8
		c-0.4,0.3-0.8,0.6-1.1,0.9c-0.3,0.3-0.5,0.6-0.6,0.8v10.6c0,0.4,0.1,0.8,0.3,1c0.2,0.3,0.5,0.5,0.9,0.6c0.3,0.1,0.6,0.2,0.9,0.3
		c0.3,0.1,0.7,0.1,1,0.1v1.2h-9.9v-1.2c0.3,0,0.6-0.1,1-0.1c0.3,0,0.6-0.1,0.9-0.2c0.4-0.1,0.7-0.3,0.8-0.6c0.2-0.3,0.3-0.6,0.3-1.1
		v-11.3c0-0.4-0.1-0.8-0.3-1.2c-0.2-0.4-0.5-0.6-0.8-0.9c-0.3-0.1-0.6-0.3-0.9-0.3c-0.4-0.1-0.7-0.1-1.1-0.1v-1.2l6.7-0.4l0.3,0.3
		v2.6h0.1c0.3-0.3,0.7-0.7,1.2-1.1c0.5-0.4,1-0.8,1.4-1c0.5-0.3,1.1-0.5,1.8-0.7c0.7-0.2,1.5-0.3,2.4-0.3c1.9,0,3.4,0.6,4.3,1.6
		c0.9,1.1,1.4,2.6,1.4,4.4v9.5c0,0.4,0.1,0.8,0.3,1.1c0.2,0.3,0.4,0.5,0.8,0.6c0.3,0.1,0.6,0.2,0.8,0.3c0.2,0.1,0.6,0.1,1,0.1V374
		L109.7,374z"/>
	<path id="XMLID_75_" class="st1" d="M135.4,373.7l-7.1,0.4l-0.3-0.3v-1.7l-0.2,0c-0.7,0.7-1.6,1.3-2.6,1.8c-1,0.5-2.1,0.7-3.2,0.7
		c-1.2,0-2.3-0.2-3.3-0.7c-1.1-0.5-2-1.1-2.8-2c-0.8-0.9-1.5-1.9-1.9-3.1c-0.5-1.2-0.7-2.5-0.7-4c0-1.3,0.3-2.6,0.8-3.8
		c0.5-1.2,1.2-2.2,2.1-3.1c0.8-0.8,1.9-1.5,3.1-2c1.2-0.5,2.4-0.7,3.7-0.7c0.9,0,1.9,0.1,2.8,0.3c0.9,0.2,1.7,0.5,2.3,0.8V350
		c0-0.5-0.1-1-0.3-1.4c-0.2-0.4-0.5-0.8-0.8-1c-0.4-0.2-0.9-0.4-1.6-0.5c-0.7-0.1-1.4-0.2-2.1-0.2v-1.2l8.3-0.4l0.3,0.3v24.7
		c0,0.4,0.1,0.8,0.3,1.1c0.2,0.3,0.5,0.6,0.8,0.8c0.3,0.2,0.6,0.2,1.1,0.3c0.5,0,0.9,0.1,1.4,0.1V373.7L135.4,373.7z M128,370.5
		v-10.7c-0.1-0.3-0.3-0.7-0.5-1c-0.2-0.4-0.6-0.7-0.9-1c-0.4-0.3-0.9-0.6-1.4-0.8c-0.5-0.2-1.2-0.3-1.9-0.3c-0.8,0-1.6,0.2-2.3,0.6
		c-0.7,0.4-1.3,0.9-1.8,1.7c-0.5,0.7-0.9,1.6-1.2,2.7c-0.3,1.1-0.4,2.3-0.4,3.6c0,1,0.1,2,0.3,2.8c0.2,0.9,0.6,1.6,1.1,2.4
		c0.5,0.7,1.1,1.3,1.8,1.7c0.7,0.4,1.6,0.6,2.7,0.6c1.1,0,2-0.2,2.7-0.7C126.9,371.5,127.5,371,128,370.5"/>
	<path id="XMLID_76_" class="st1" d="M160.1,373.7l-6.6,0.4l-0.3-0.3v-2.3h-0.1c-0.3,0.3-0.7,0.6-1.1,1c-0.4,0.4-0.9,0.7-1.4,1
		c-0.6,0.3-1.2,0.6-1.8,0.8c-0.6,0.2-1.4,0.3-2.4,0.3c-1.8,0-3.2-0.5-4.1-1.6c-0.9-1.1-1.4-2.6-1.4-4.6v-8.8c0-0.4-0.1-0.8-0.3-1.1
		c-0.2-0.3-0.5-0.6-0.8-0.8c-0.2-0.1-0.6-0.3-0.9-0.3c-0.4-0.1-0.8-0.1-1.2-0.1v-1.2l6.8-0.4l0.3,0.3v12.8c0,1.3,0.3,2.3,1,3
		c0.7,0.7,1.4,1,2.4,1c0.7,0,1.4-0.1,2-0.3c0.6-0.2,1.1-0.5,1.5-0.7c0.4-0.3,0.7-0.5,1-0.8c0.3-0.3,0.5-0.6,0.6-0.8v-10.4
		c0-0.4-0.1-0.8-0.3-1.1c-0.2-0.3-0.5-0.6-0.8-0.8c-0.2-0.2-0.6-0.2-1.1-0.3c-0.5,0-1-0.1-1.6-0.1v-1.2l7.4-0.4l0.3,0.3v14.6
		c0,0.4,0.1,0.8,0.3,1.1c0.2,0.3,0.5,0.6,0.8,0.8c0.2,0.1,0.5,0.2,0.9,0.3c0.3,0,0.7,0.1,1.1,0.1L160.1,373.7L160.1,373.7z"/>
	<path id="XMLID_77_" class="st1" d="M177,365c0.6,0.4,1,1,1.3,1.5c0.3,0.6,0.4,1.3,0.4,2.1c0,1.7-0.7,3.1-2.1,4.2
		c-1.4,1.1-3.2,1.6-5.5,1.6c-1.2,0-2.3-0.2-3.3-0.6c-1-0.4-1.7-0.7-2.1-1.1l-0.4,1.2h-1.5l-0.2-6.4h1.4c0.1,0.5,0.3,1,0.7,1.7
		c0.4,0.6,0.8,1.2,1.3,1.8c0.5,0.5,1.2,1,1.9,1.4c0.8,0.4,1.6,0.6,2.5,0.6c1.3,0,2.3-0.3,3-0.8c0.7-0.5,1.1-1.3,1.1-2.3
		c0-0.5-0.1-1-0.3-1.3c-0.2-0.4-0.6-0.7-1-1c-0.5-0.3-1-0.5-1.7-0.8c-0.7-0.2-1.4-0.5-2.2-0.7c-0.6-0.2-1.4-0.4-2.1-0.7
		c-0.8-0.3-1.5-0.7-2-1.1c-0.6-0.4-1.1-1-1.5-1.6c-0.4-0.6-0.6-1.4-0.6-2.2c0-1.5,0.6-2.8,1.9-3.8c1.2-1,2.9-1.6,5-1.6
		c0.8,0,1.6,0.1,2.4,0.3c0.8,0.2,1.5,0.4,2,0.7l0.5-1h1.5l0.3,5.9h-1.4c-0.3-1.3-0.9-2.4-1.9-3.2c-0.9-0.8-2.1-1.2-3.5-1.2
		c-1.1,0-2,0.3-2.7,0.8c-0.6,0.5-1,1.1-1,1.8c0,0.6,0.1,1,0.3,1.4c0.2,0.4,0.5,0.7,1,0.9c0.4,0.2,0.9,0.5,1.5,0.7
		c0.6,0.2,1.4,0.5,2.3,0.7c0.9,0.3,1.8,0.6,2.6,0.9C175.8,364.2,176.5,364.6,177,365"/>
	<path id="XMLID_78_" class="st1" d="M195.3,373.2c-0.9,0.3-1.7,0.6-2.5,0.8c-0.8,0.2-1.8,0.3-2.9,0.3c-1.7,0-2.9-0.4-3.6-1.2
		c-0.7-0.8-1-1.9-1-3.3v-12.4h-3.7v-1.8h3.7V350h3.7v5.7h5.8v1.8h-5.8v10.3c0,0.8,0,1.4,0.1,1.9c0.1,0.5,0.2,1,0.4,1.3
		c0.2,0.4,0.5,0.6,1,0.8c0.4,0.2,1,0.3,1.8,0.3c0.3,0,0.8,0,1.5-0.1c0.7-0.1,1.1-0.1,1.4-0.2V373.2L195.3,373.2z"/>
	<path id="XMLID_79_" class="st1" d="M213.9,358c0,0.6-0.2,1.2-0.5,1.7c-0.3,0.5-0.9,0.7-1.6,0.7c-0.8,0-1.4-0.2-1.8-0.5
		c-0.4-0.4-0.6-0.8-0.6-1.2c0-0.3,0-0.5,0.1-0.7c0-0.2,0.1-0.5,0.1-0.7c-0.6,0-1.4,0.2-2.3,0.7c-0.9,0.5-1.6,1.1-2.2,2v10.7
		c0,0.4,0.1,0.8,0.3,1.1c0.2,0.3,0.5,0.5,0.9,0.6c0.3,0.1,0.8,0.2,1.3,0.3c0.5,0.1,1,0.1,1.4,0.1v1.2h-10.7v-1.2
		c0.3,0,0.6-0.1,1-0.1c0.3,0,0.6-0.1,0.9-0.2c0.4-0.1,0.7-0.3,0.9-0.6c0.2-0.3,0.3-0.6,0.3-1.1v-11.3c0-0.4-0.1-0.8-0.3-1.1
		c-0.2-0.4-0.5-0.7-0.8-0.9c-0.3-0.1-0.6-0.3-0.9-0.3c-0.4-0.1-0.7-0.1-1.1-0.1v-1.2l6.7-0.4l0.3,0.3v2.6h0.1c0.8-1,1.8-1.8,2.8-2.3
		c1-0.5,2-0.8,2.9-0.8c0.9,0,1.6,0.3,2.1,0.8C213.6,356.5,213.9,357.2,213.9,358"/>
	<path id="XMLID_82_" class="st1" d="M226.5,374h-9.8v-1.2c0.3,0,0.6-0.1,1-0.1c0.3,0,0.6-0.1,0.9-0.2c0.4-0.1,0.7-0.3,0.9-0.6
		c0.2-0.3,0.3-0.6,0.3-1.1v-11.3c0-0.4-0.1-0.8-0.3-1.1c-0.2-0.3-0.5-0.6-0.8-0.8c-0.3-0.2-0.6-0.3-1.1-0.4
		c-0.5-0.1-0.9-0.2-1.4-0.2v-1.2l7.2-0.4l0.3,0.3v15c0,0.4,0.1,0.8,0.3,1.1c0.2,0.3,0.5,0.5,0.9,0.6c0.3,0.1,0.6,0.2,0.9,0.3
		c0.3,0.1,0.6,0.1,1,0.1L226.5,374L226.5,374z M223.9,348.2c0,0.7-0.3,1.3-0.8,1.8c-0.5,0.5-1.1,0.8-1.9,0.8c-0.7,0-1.3-0.3-1.8-0.8
		c-0.5-0.5-0.8-1.1-0.8-1.7c0-0.7,0.3-1.3,0.8-1.8c0.5-0.5,1.1-0.8,1.8-0.8c0.8,0,1.4,0.2,1.9,0.7
		C223.6,347,223.9,347.6,223.9,348.2"/>
	<path id="XMLID_85_" class="st1" d="M248,369.7c-0.8,1.5-2,2.6-3.4,3.5c-1.4,0.9-3.1,1.3-4.9,1.3c-1.6,0-3.1-0.3-4.3-0.8
		c-1.2-0.5-2.2-1.2-3-2.1c-0.8-0.9-1.4-1.9-1.8-3.1c-0.4-1.2-0.6-2.5-0.6-3.8c0-1.2,0.2-2.4,0.6-3.5c0.4-1.2,1-2.2,1.8-3.1
		c0.8-0.9,1.7-1.6,2.9-2.1c1.2-0.5,2.5-0.8,3.9-0.8c1.5,0,2.7,0.2,3.8,0.6c1.1,0.4,1.9,1,2.6,1.7c0.6,0.7,1.1,1.5,1.4,2.5
		c0.3,0.9,0.5,2,0.5,3.1v1.2h-13.4c0,1.2,0.1,2.3,0.4,3.3c0.3,1,0.7,1.8,1.2,2.6c0.5,0.7,1.2,1.3,2.1,1.7c0.9,0.4,1.9,0.6,3.1,0.6
		c1.2,0,2.3-0.3,3.2-0.8c0.9-0.5,1.7-1.4,2.6-2.8L248,369.7L248,369.7z M243.4,362.7c0-0.7-0.1-1.4-0.2-2.2c-0.1-0.8-0.3-1.5-0.6-2
		c-0.3-0.6-0.8-1-1.3-1.4c-0.5-0.4-1.3-0.5-2.1-0.5c-1.4,0-2.6,0.5-3.6,1.6c-1,1.1-1.5,2.6-1.6,4.5L243.4,362.7L243.4,362.7z"/>
	<path id="XMLID_86_" class="st1" d="M264.7,365c0.6,0.4,1,1,1.3,1.5c0.3,0.6,0.4,1.3,0.4,2.1c0,1.7-0.7,3.1-2.1,4.2
		c-1.4,1.1-3.2,1.6-5.5,1.6c-1.2,0-2.3-0.2-3.3-0.6c-1-0.4-1.7-0.7-2.1-1.1l-0.4,1.2h-1.5l-0.2-6.4h1.4c0.1,0.5,0.3,1,0.7,1.7
		c0.4,0.6,0.8,1.2,1.3,1.8c0.5,0.5,1.2,1,1.9,1.4c0.8,0.4,1.6,0.6,2.5,0.6c1.3,0,2.3-0.3,3-0.8c0.7-0.5,1.1-1.3,1.1-2.3
		c0-0.5-0.1-1-0.3-1.3c-0.2-0.4-0.6-0.7-1-1c-0.5-0.3-1-0.5-1.7-0.8c-0.7-0.2-1.4-0.5-2.2-0.7c-0.6-0.2-1.4-0.4-2.1-0.7
		c-0.8-0.3-1.5-0.7-2-1.1c-0.6-0.4-1.1-1-1.5-1.6c-0.4-0.6-0.6-1.4-0.6-2.2c0-1.5,0.6-2.8,1.9-3.8c1.2-1,2.9-1.6,5-1.6
		c0.8,0,1.6,0.1,2.4,0.3c0.8,0.2,1.5,0.4,2,0.7l0.5-1h1.5l0.3,5.9H264c-0.3-1.3-0.9-2.4-1.9-3.2c-0.9-0.8-2.1-1.2-3.5-1.2
		c-1.1,0-2,0.3-2.7,0.8c-0.6,0.5-1,1.1-1,1.8c0,0.6,0.1,1,0.3,1.4c0.2,0.4,0.5,0.7,1,0.9c0.4,0.2,0.9,0.5,1.5,0.7
		c0.6,0.2,1.4,0.5,2.3,0.7c0.9,0.3,1.8,0.6,2.6,0.9C263.5,364.2,264.2,364.6,264.7,365"/>
	<path id="XMLID_87_" class="st1" d="M303.6,366.2L303,374h-22.8v-1.3c0.3,0,0.8-0.1,1.4-0.1c0.6-0.1,1.1-0.1,1.3-0.2
		c0.4-0.2,0.7-0.4,0.9-0.7c0.2-0.3,0.3-0.7,0.3-1.2v-18.9c0-0.4-0.1-0.8-0.2-1.1c-0.2-0.3-0.5-0.6-0.9-0.8c-0.3-0.1-0.8-0.3-1.3-0.4
		c-0.6-0.1-1-0.2-1.4-0.2v-1.3h12.3v1.3c-0.4,0-0.9,0.1-1.5,0.2c-0.6,0.1-1.1,0.2-1.3,0.3c-0.5,0.1-0.8,0.4-1,0.8
		c-0.2,0.4-0.3,0.7-0.3,1.2v17.7c0,0.8,0,1.5,0.1,1.9c0.1,0.5,0.3,0.8,0.6,1.1c0.3,0.2,0.8,0.4,1.4,0.4c0.6,0.1,1.5,0.1,2.6,0.1
		c0.5,0,1,0,1.6,0c0.5,0,1.1-0.1,1.6-0.2c0.5-0.1,0.9-0.2,1.3-0.3c0.4-0.1,0.7-0.3,0.9-0.5c0.6-0.6,1.2-1.4,2-2.6
		c0.7-1.2,1.3-2.1,1.6-2.8L303.6,366.2L303.6,366.2z"/>
	<path id="XMLID_90_" class="st1" d="M315.9,374h-9.8v-1.2c0.3,0,0.6-0.1,1-0.1c0.3,0,0.6-0.1,0.9-0.2c0.4-0.1,0.7-0.3,0.9-0.6
		c0.2-0.3,0.3-0.6,0.3-1.1v-11.3c0-0.4-0.1-0.8-0.3-1.1c-0.2-0.3-0.5-0.6-0.8-0.8c-0.3-0.2-0.6-0.3-1.1-0.4
		c-0.5-0.1-0.9-0.2-1.4-0.2v-1.2l7.2-0.4l0.3,0.3v15c0,0.4,0.1,0.8,0.3,1.1c0.2,0.3,0.5,0.5,0.9,0.6c0.3,0.1,0.6,0.2,0.9,0.3
		c0.3,0.1,0.6,0.1,1,0.1V374z M313.4,348.2c0,0.7-0.3,1.3-0.8,1.8c-0.5,0.5-1.1,0.8-1.9,0.8c-0.7,0-1.3-0.3-1.8-0.8
		c-0.5-0.5-0.8-1.1-0.8-1.7c0-0.7,0.3-1.3,0.8-1.8c0.5-0.5,1.1-0.8,1.8-0.8c0.8,0,1.4,0.2,1.9,0.7
		C313.1,347,313.4,347.6,313.4,348.2"/>
	<path id="XMLID_91_" class="st1" d="M354.2,374h-9.9v-1.2c0.3,0,0.6-0.1,1-0.1c0.3,0,0.6-0.1,0.9-0.2c0.4-0.1,0.7-0.3,0.8-0.6
		c0.2-0.3,0.3-0.6,0.3-1.1v-9.5c0-1.3-0.3-2.3-1-3c-0.7-0.7-1.5-1-2.4-1c-0.7,0-1.3,0.1-1.9,0.3c-0.6,0.2-1.1,0.4-1.6,0.8
		c-0.4,0.3-0.7,0.6-1,0.9c-0.3,0.3-0.5,0.6-0.6,0.8v10.6c0,0.4,0.1,0.8,0.2,1.1c0.2,0.3,0.4,0.5,0.8,0.6c0.3,0.1,0.6,0.2,0.9,0.3
		c0.3,0.1,0.6,0.1,1,0.1v1.2h-9.7v-1.2c0.3,0,0.6-0.1,0.9-0.1c0.3,0,0.6-0.1,0.8-0.2c0.4-0.1,0.7-0.3,0.9-0.6
		c0.2-0.3,0.3-0.6,0.3-1.1v-9.5c0-1.3-0.3-2.3-1-3c-0.7-0.7-1.5-1-2.4-1c-0.7,0-1.3,0.1-1.9,0.3c-0.6,0.2-1.1,0.5-1.6,0.8
		c-0.4,0.3-0.7,0.6-1,0.9c-0.3,0.3-0.5,0.6-0.6,0.8v10.5c0,0.4,0.1,0.8,0.3,1.1c0.2,0.3,0.5,0.5,0.9,0.6c0.3,0.1,0.6,0.2,0.9,0.3
		c0.3,0.1,0.6,0.1,1,0.1v1.2h-9.8v-1.2c0.3,0,0.6-0.1,1-0.1c0.3,0,0.6-0.1,0.9-0.2c0.4-0.1,0.7-0.3,0.9-0.6c0.2-0.3,0.3-0.6,0.3-1.1
		v-11.4c0-0.4-0.1-0.8-0.3-1.1c-0.2-0.3-0.5-0.6-0.8-0.8c-0.3-0.1-0.6-0.3-1-0.4c-0.4-0.1-0.8-0.2-1.2-0.2v-1.2l6.8-0.4l0.3,0.3v2.6
		h0.1c0.3-0.3,0.8-0.7,1.3-1.1c0.5-0.4,1-0.8,1.4-1c0.5-0.3,1.1-0.5,1.8-0.7c0.7-0.2,1.5-0.3,2.3-0.3c1.3,0,2.4,0.3,3.4,1
		c0.9,0.6,1.6,1.4,2,2.3c0.5-0.4,0.9-0.8,1.3-1.1c0.4-0.3,0.9-0.7,1.5-1.1c0.5-0.3,1.1-0.6,1.8-0.8c0.7-0.2,1.5-0.3,2.4-0.3
		c1.7,0,3.1,0.5,4.1,1.5c1,1,1.5,2.6,1.5,4.7v9.3c0,0.4,0.1,0.8,0.2,1.1c0.2,0.3,0.4,0.5,0.8,0.6c0.3,0.1,0.6,0.2,0.9,0.3
		c0.3,0.1,0.7,0.1,1,0.1V374z"/>
	<path id="XMLID_94_" class="st1" d="M367.4,374h-9.8v-1.2c0.3,0,0.6-0.1,1-0.1c0.3,0,0.6-0.1,0.9-0.2c0.4-0.1,0.7-0.3,0.9-0.6
		c0.2-0.3,0.3-0.6,0.3-1.1v-11.3c0-0.4-0.1-0.8-0.3-1.1c-0.2-0.3-0.5-0.6-0.8-0.8c-0.3-0.2-0.6-0.3-1.1-0.4
		c-0.5-0.1-0.9-0.2-1.4-0.2v-1.2l7.2-0.4l0.3,0.3v15c0,0.4,0.1,0.8,0.3,1.1c0.2,0.3,0.5,0.5,0.9,0.6c0.3,0.1,0.6,0.2,0.9,0.3
		c0.3,0.1,0.6,0.1,1,0.1V374z M364.8,348.2c0,0.7-0.3,1.3-0.8,1.8c-0.5,0.5-1.1,0.8-1.9,0.8c-0.7,0-1.3-0.3-1.8-0.8
		c-0.5-0.5-0.8-1.1-0.8-1.7c0-0.7,0.3-1.3,0.8-1.8c0.5-0.5,1.1-0.8,1.8-0.8c0.8,0,1.4,0.2,1.9,0.7
		C364.5,347,364.8,347.6,364.8,348.2"/>
	<path id="XMLID_95_" class="st1" d="M383.4,373.2c-0.9,0.3-1.7,0.6-2.5,0.8c-0.8,0.2-1.8,0.3-2.9,0.3c-1.7,0-2.9-0.4-3.6-1.2
		c-0.7-0.8-1-1.9-1-3.3v-12.4h-3.7v-1.8h3.7V350h3.7v5.7h5.8v1.8h-5.8v10.3c0,0.8,0,1.4,0.1,1.9c0.1,0.5,0.2,1,0.4,1.3
		c0.2,0.4,0.5,0.6,1,0.8c0.4,0.2,1,0.3,1.8,0.3c0.3,0,0.8,0,1.5-0.1c0.7-0.1,1.1-0.1,1.4-0.2L383.4,373.2L383.4,373.2z"/>
	<path id="XMLID_98_" class="st1" d="M404.4,369.7c-0.8,1.5-2,2.6-3.4,3.5c-1.4,0.9-3.1,1.3-4.9,1.3c-1.6,0-3.1-0.3-4.3-0.8
		c-1.2-0.5-2.2-1.2-3-2.1c-0.8-0.9-1.4-1.9-1.8-3.1c-0.4-1.2-0.6-2.5-0.6-3.8c0-1.2,0.2-2.4,0.6-3.5c0.4-1.2,1-2.2,1.8-3.1
		c0.8-0.9,1.7-1.6,2.9-2.1c1.2-0.5,2.5-0.8,3.9-0.8c1.5,0,2.7,0.2,3.8,0.6c1.1,0.4,1.9,1,2.6,1.7c0.6,0.7,1.1,1.5,1.4,2.5
		c0.3,0.9,0.5,2,0.5,3.1v1.2h-13.4c0,1.2,0.1,2.3,0.4,3.3c0.3,1,0.7,1.8,1.2,2.6c0.5,0.7,1.2,1.3,2.1,1.7c0.9,0.4,1.9,0.6,3.1,0.6
		c1.2,0,2.3-0.3,3.2-0.8c0.9-0.5,1.7-1.4,2.6-2.8L404.4,369.7L404.4,369.7z M399.9,362.7c0-0.7-0.1-1.4-0.2-2.2
		c-0.1-0.8-0.3-1.5-0.6-2c-0.3-0.6-0.7-1-1.3-1.4c-0.5-0.4-1.3-0.5-2.1-0.5c-1.4,0-2.6,0.5-3.6,1.6c-1,1.1-1.5,2.6-1.6,4.5
		L399.9,362.7L399.9,362.7z"/>
	<path id="XMLID_101_" class="st1" d="M430,373.7l-7.1,0.4l-0.3-0.3v-1.7l-0.2,0c-0.7,0.7-1.6,1.3-2.6,1.8c-1,0.5-2.1,0.7-3.2,0.7
		c-1.2,0-2.3-0.2-3.3-0.7c-1.1-0.5-2-1.1-2.8-2c-0.8-0.9-1.5-1.9-1.9-3.1c-0.5-1.2-0.7-2.5-0.7-4c0-1.3,0.3-2.6,0.8-3.8
		c0.5-1.2,1.2-2.2,2.1-3.1c0.8-0.8,1.9-1.5,3.1-2c1.2-0.5,2.4-0.7,3.7-0.7c0.9,0,1.9,0.1,2.8,0.3c0.9,0.2,1.7,0.5,2.3,0.8V350
		c0-0.5-0.1-1-0.3-1.4c-0.2-0.4-0.5-0.8-0.8-1c-0.4-0.2-0.9-0.4-1.6-0.5c-0.7-0.1-1.4-0.2-2.1-0.2v-1.2l8.3-0.4l0.3,0.3v24.7
		c0,0.4,0.1,0.8,0.3,1.1c0.2,0.3,0.5,0.6,0.8,0.8c0.3,0.2,0.6,0.2,1.1,0.3c0.5,0,0.9,0.1,1.4,0.1V373.7L430,373.7z M422.6,370.5
		v-10.7c-0.1-0.3-0.3-0.7-0.5-1c-0.2-0.4-0.6-0.7-0.9-1c-0.4-0.3-0.9-0.6-1.4-0.8c-0.5-0.2-1.2-0.3-1.9-0.3c-0.8,0-1.6,0.2-2.3,0.6
		c-0.7,0.4-1.3,0.9-1.8,1.7c-0.5,0.7-0.9,1.6-1.2,2.7c-0.3,1.1-0.4,2.3-0.4,3.6c0,1,0.1,2,0.3,2.8c0.2,0.9,0.6,1.6,1.1,2.4
		c0.5,0.7,1.1,1.3,1.8,1.7c0.7,0.4,1.6,0.6,2.7,0.6c1.1,0,2-0.2,2.7-0.7C421.5,371.5,422.1,371,422.6,370.5"/>
</g>
</svg>
