<?xml version="1.0" encoding="UTF-8" standalone="no"?>
<svg
   width="288"
   height="300"
   viewBox="0 0 1632 1701"
   version="1.0"
   id="svg2"
   sodipodi:version="0.32"
   inkscape:version="1.4.2 (f4327f4, 2025-05-13)"
   sodipodi:docname="ITC_Limited_Logo.svg"
   inkscape:output_extension="org.inkscape.output.svg.inkscape"
   xmlns:inkscape="http://www.inkscape.org/namespaces/inkscape"
   xmlns:sodipodi="http://sodipodi.sourceforge.net/DTD/sodipodi-0.dtd"
   xmlns="http://www.w3.org/2000/svg"
   xmlns:svg="http://www.w3.org/2000/svg"
   xmlns:rdf="http://www.w3.org/1999/02/22-rdf-syntax-ns#"
   xmlns:cc="http://creativecommons.org/ns#"
   xmlns:dc="http://purl.org/dc/elements/1.1/">
  <metadata
     id="metadata43">
    <rdf:RDF>
      <cc:Work
         rdf:about="">
        <dc:format>image/svg+xml</dc:format>
        <dc:type
           rdf:resource="http://purl.org/dc/dcmitype/StillImage" />
      </cc:Work>
    </rdf:RDF>
  </metadata>
  <defs
     id="defs41">
    <inkscape:perspective
       sodipodi:type="inkscape:persp3d"
       inkscape:vp_x="0 : 1063.125 : 1"
       inkscape:vp_y="0 : 1000 : 0"
       inkscape:vp_z="2040 : 1063.125 : 1"
       inkscape:persp3d-origin="1020 : 708.75 : 1"
       id="perspective45" />
  </defs>
  <sodipodi:namedview
     inkscape:window-height="669"
     inkscape:window-width="640"
     inkscape:pageshadow="2"
     inkscape:pageopacity="0.0"
     guidetolerance="10.0"
     gridtolerance="10.0"
     objecttolerance="10.0"
     borderopacity="1.0"
     bordercolor="#666666"
     pagecolor="#ffffff"
     id="base"
     showgrid="false"
     inkscape:zoom="5.6568543"
     inkscape:cx="153.61895"
     inkscape:cy="191.53755"
     inkscape:window-x="138"
     inkscape:window-y="95"
     inkscape:current-layer="svg2"
     inkscape:showpageshadow="2"
     inkscape:pagecheckerboard="0"
     inkscape:deskcolor="#d1d1d1" />
  <path
     d="M 808.49,18.52 707.92,662.98 c -0.24,2.25 -2.4,3.51 -3.7,5.16 L 17.79,1403.02 Z"
     id="path6"
     style="fill:#062f62"
     sodipodi:nodetypes="ccccc" />
  <path
     d="M 826.34,18.43 1617.69,1403.31 928.02,665.89 c -1.28,-1.71 -1.06,-4.03 -1.49,-6.01 z"
     id="path8"
     style="fill:#062f62"
     sodipodi:nodetypes="ccccc" />
  <path
     d="M 462.9,979.1 596.76,979.02 364.8,1403.15 85.03,1403.14 Z"
     id="path10"
     style="fill:#062f62"
     sodipodi:nodetypes="ccccc" />
  <path
     d="m 640.95,979 233.59,0.02 20.74,141.13 -77.27,0.02 -0.01,283 -244.73,0.04 84.3,-282.22 c -26.35,0.02 -52.69,0 -79.04,0.02 z"
     id="path12"
     style="fill:#062f62"
     sodipodi:nodetypes="ccccccccc" />
  <path
     d="m 969.09,979 203.91,-0.03 114.12,128.03 -158.23,0.04 c -10.44,0.24 -18.28,12.7 -13.31,22.11 l 48.39,89.82 c 6.28,13.91 20.8,23.43 36.06,23.66 l 207.51,0.14 142.09,160.21 -472.61,0.01 c -44.2318,-0.2925 -58.4459,-15.369 -66.76,-52.13 l -81.58,-327 c -5.00474,-26.91472 15.51159,-44.96279 40.41,-44.86 z"
     id="path1"
     style="fill:#062f62;fill-opacity:1"
     sodipodi:nodetypes="ccccccccccccc" />
  <g
     id="g2">
    <path
       d="m 1154.18,1509.11 c 10.41,-3.11 21.94,5.98 21.13,16.85 0.04,10.22 -10.55,18.45 -20.45,16.02 -8.42,-1.66 -14.52,-10.35 -13.14,-18.84 0.72,-6.65 5.99,-12.45 12.46,-14.03 z"
       id="path22"
       style="fill:#062f62" />
    <path
       d="m 826.2,1509.15 c 9.4,-2.86 20.18,4.11 21.22,13.91 1.74,9.71 -6.68,19.43 -16.49,19.28 -8.58,0.36 -16.51,-6.79 -17.09,-15.34 -0.94,-7.94 4.64,-15.92 12.36,-17.85 z"
       id="path20"
       style="fill:#062f62" />
    <path
       d="m 430.97,1523.93 c 14.45,-12.47 33.77,-20 53,-17.97 11.97,0.98 23.49,5.74 32.92,13.15 2.94,2.15 7.17,4.8 10.68,2.31 4.51,-3.79 3.14,-10.88 7.53,-14.77 1.33,0.8 3.26,1.39 2.97,3.38 0.31,19.64 0.24,39.31 0.97,58.94 0.09,2.73 -0.09,5.51 -1.08,8.11 -1.39,-0.44 -3.3,-0.56 -3.62,-2.31 -3.31,-9.3 -5.86,-18.93 -10.23,-27.82 -3.9,-7.78 -8.11,-15.54 -14.02,-21.99 -6.72,-7.51 -15.92,-13.15 -26.08,-14.15 -13.24,-1.24 -28.22,2.64 -36.28,13.93 -5.84,8.01 -8.16,17.86 -10.13,27.4 -2.56,14.83 -3.29,29.89 -4,44.91 -0.2,18.66 0.06,37.91 6.87,55.57 3.8,9.84 10.22,19.21 19.8,24.14 10.37,5.43 22.68,4.76 33.8,2.34 13,-2.78 24.8,-10.97 31.52,-22.5 6.8,-10.99 8.79,-24.05 9.48,-36.73 2.31,-0.59 4.68,-0.47 7.01,0 0.33,1.35 1.1,2.67 0.83,4.15 -0.82,9.19 -2.53,18.35 -5.68,27.05 -5.73,16.29 -20.67,28.44 -37.32,32.3 -11.75,2.67 -24.19,4.17 -36.04,1.22 -14,-3.37 -26.92,-10.53 -37.9,-19.76 -3.74,-3.22 -7.3,-6.76 -9.75,-11.08 -4.34,-7.41 -9.09,-14.65 -12.18,-22.71 -8.31,-21.23 -8.25,-45.59 0.18,-66.77 5.9,-15.12 14.87,-29.21 26.75,-40.34 z"
       id="path16"
       style="fill:#062f62" />
    <path
       d="m 1509.98,1507.43 c 3.71,-0.25 7.42,-1.06 11.16,-0.62 2.37,0.44 3.98,2.74 3.83,5.12 0.08,49.34 0.03,98.69 0.02,148.03 -0.19,5.07 -0.36,11.45 4.54,14.52 6,3.01 13.01,2.25 19.52,2.36 1.13,1.55 1.35,4.32 -1.14,4.46 -14.96,0.98 -29.95,1.55 -44.92,2.29 -2.75,0.3 -6.27,-0.64 -6.85,-3.73 -0.45,-4.97 0.14,-9.98 -0.23,-14.94 -0.47,-0.66 -0.94,-1.28 -1.41,-1.85 -3.36,3.77 -6.41,7.88 -10.44,11.01 -10.37,8.67 -24.79,12.25 -37.99,9.19 -14.35,-3.07 -26.37,-13.32 -33.54,-25.87 -9.62,-16.78 -12.13,-37.61 -6.4,-56.11 4.97,-15.76 15.76,-29.82 30.29,-37.86 10.59,-5.86 23.47,-8.35 35.23,-4.81 9.9,2.79 17.63,10.14 23.42,18.36 1.56,-2.42 0.7,-5.35 0.8,-8.01 -0.11,-14 0.01,-28 -0.01,-42 0.08,-4.53 -2.8,-9.05 -7.09,-10.61 -6.11,-2.27 -12.74,-1.42 -19.09,-2.06 0.05,-1.59 -0.51,-3.66 1.52,-4.16 12.93,-0.9 25.85,-1.87 38.78,-2.71 m -51.62,56.04 c -7.62,2.21 -12.88,8.88 -15.94,15.89 -5.6,12.75 -6.42,26.91 -6.84,40.64 0.27,9.73 0.61,19.54 2.69,29.09 1.69,7.54 4.33,15.23 9.74,20.97 5.83,6.31 15.36,8.7 23.57,6.4 5.3,-1.66 9.84,-5.33 12.99,-9.86 6.72,-9.35 9.41,-20.9 10.73,-32.16 1.48,-15.38 0.93,-31.24 -3.86,-46.03 -2.82,-8.22 -7.05,-16.47 -14.22,-21.7 -5.32,-3.98 -12.52,-5.21 -18.86,-3.24 z"
       id="path18"
       style="fill:#062f62" />
    <path
       d="m 1229.06,1511.96 c 0.27,-3.28 5.85,-3.17 6.12,0.08 0.03,14.64 -0.04,29.3 -0.01,43.94 -0.4,2.17 1.56,4.13 3.72,3.99 10.37,0.18 20.76,-0.18 31.13,0.15 3.08,0.23 3.55,4.78 0.99,6.12 -10.37,-0.03 -20.75,-0.2 -31.11,-0.01 -3.03,-0.16 -5.04,2.9 -4.71,5.71 -0.06,30.01 0.02,60.03 -0.03,90.05 -0.21,5.58 1.91,11.9 7.19,14.56 7.63,3.7 17.8,1.76 23.08,-5.04 5.58,-7.2 7,-16.7 6.97,-25.57 -0.24,-1.66 0.64,-3.05 1.4,-4.41 1.46,0.23 3.48,-0.36 4.4,1.25 1.35,1.77 0.51,4.09 0.47,6.14 -0.8,11.02 -4.06,22.65 -12.28,30.47 -5.62,5.56 -13.64,8.09 -21.41,8.21 -9.19,0.18 -18.76,-1.04 -26.81,-5.74 -7.67,-4.39 -12.93,-12.97 -12.79,-21.87 0.03,-28.67 0.01,-57.34 0.02,-86 -0.27,-2.47 0.08,-5.64 -2.16,-7.26 -2.91,-1.16 -6.2,-0.39 -9.25,-0.58 -3.44,-0.3 -7.29,1.09 -10.29,-1.09 -0.1,-2.14 0.4,-5.21 3.21,-5.01 14.43,1.26 27.87,-8.44 34.24,-20.9 4.17,-8.53 6.47,-17.85 7.91,-27.19 z"
       id="path24"
       style="fill:#062f62" />
    <path
       d="m 214.83,1512 c 49.93,0.01 99.86,-0.02 149.79,0.01 -0.1,22.78 0.15,45.56 -0.12,68.33 0.21,3.18 -3.83,3.81 -5.67,1.78 -2.48,-16.72 -7.68,-33.16 -16.35,-47.72 -3.97,-6.44 -9.36,-12.85 -17.01,-14.75 -5.74,-1.26 -11.65,-1.93 -17.51,-1.54 -2.16,1.51 -2.37,4.47 -2.38,6.9 0.06,46.65 0.01,93.31 0.02,139.96 -0.19,3.99 1.95,8.09 5.77,9.61 8.53,3.6 18.1,2.32 26.96,4.34 0.42,2.21 -0.49,4.9 -3.26,4.41 -30.68,0.07 -61.37,-0.02 -92.05,0.05 -1.56,-0.12 -3.58,0.18 -4.51,-1.4 0.03,-0.81 0.1,-2.45 0.13,-3.26 9.93,-1.65 20.48,-1.75 29.59,-6.56 2.7,-1.44 5.9,-3.63 5.75,-7.07 0.03,-47.36 0.01,-94.73 0.01,-142.09 0.16,-2 -0.58,-4.76 -2.97,-4.91 -7.44,-0.47 -15.4,0.18 -21.93,4.1 -8.19,5.6 -13.28,14.51 -17.55,23.24 -5.61,11.39 -8.54,23.83 -11.15,36.18 -0.97,2.46 -3.92,1.84 -5.58,0.48 0.02,-23.37 0.01,-46.73 0.02,-70.09 z"
       id="path26"
       style="fill:#062f62" />
    <path
       d="m 85.73,1517.22 c -0.24,-1.78 -0.31,-4.52 2.2,-4.35 28.04,-0.04 56.09,-0.05 84.14,-0.01 2.52,-0.2 2.36,2.57 2.19,4.33 -7.75,1.82 -16.18,1.13 -23.5,4.68 -3.04,1.45 -5.04,4.75 -4.76,8.15 0.01,45.35 -0.02,90.69 0.01,136.04 -0.28,3.95 2.72,7.31 6.3,8.56 6.57,2.33 13.65,2.62 20.52,3.5 1.64,0.49 1.88,2.33 1.34,3.77 -1.24,1.58 -3.39,1.18 -5.15,1.31 -26.68,-0.08 -53.36,0.02 -80.04,-0.06 -2.43,0.37 -4.1,-1.77 -3.28,-4.04 1.66,-1.75 4.29,-1.11 6.43,-1.53 5.44,-0.75 11.07,-1.12 16.2,-3.23 3.34,-1.31 5.8,-4.65 5.65,-8.29 0.04,-45.37 0.01,-90.74 0.01,-136.1 0.26,-3.93 -2.48,-7.44 -6.07,-8.73 -7.1,-2.72 -14.86,-2.41 -22.19,-4 z"
       id="path28"
       style="fill:#062f62" />
    <path
       d="m 638.2,1513.19 c 29.58,-0.43 59.2,-0.08 88.79,-0.18 2.76,-0.75 4.33,3.55 1.8,4.75 -8.4,1.28 -17.3,0.69 -25.37,3.77 -4.28,1.5 -6.57,6.05 -6.25,10.42 0.02,44.38 -0.07,88.77 0.03,133.15 -0.34,4.7 3,9.01 7.49,10.21 7.92,2.25 16.31,3.19 24.49,1.89 11.35,-1.4 23.63,-3.6 32.21,-11.82 12.3,-11.81 16.97,-29.02 19.6,-45.33 0.48,-2.21 0.3,-5.67 3,-6.42 2.77,0.74 3.02,3.97 3.01,6.35 0,19.69 -0.01,39.38 0.01,59.08 0.37,1.84 -0.97,4.01 -2.96,4.03 -45.67,0.16 -91.35,0.37 -137.03,0.29 -2.96,-0.17 -6.03,0.42 -8.9,-0.39 -2.18,-1 -1.36,-4.57 0.91,-4.64 6.89,-1.04 14.12,-1 20.66,-3.67 3.85,-1.51 6.22,-5.56 5.95,-9.64 0,-44.68 -0.02,-89.36 0,-134.04 0.26,-4.35 -2.72,-8.4 -6.8,-9.76 -6.36,-2.12 -13.14,-2.43 -19.74,-3.26 -2.53,-0.11 -2.98,-3.66 -0.9,-4.79 z"
       id="path30"
       style="fill:#062f62" />
    <path
       d="m 949.55,1565.55 c 6.31,-4.42 13.74,-7.57 21.53,-7.8 9.19,-0.42 18.94,1.02 26.52,6.6 6.18,4.53 10.46,11.31 12.85,18.52 0.57,1.79 1.5,3.43 2.56,5 2.97,-2.89 3.97,-7.09 6.67,-10.17 5.51,-6.62 12.08,-12.52 19.9,-16.27 9.38,-4.8 20.49,-4.45 30.54,-2.27 13.81,2.96 25.62,15.5 25.97,29.89 0.45,7.97 -0.11,15.95 -0.09,23.93 -0.92,17.33 -0.53,34.71 -1.43,52.04 -0.29,3.8 0.85,8.13 4.6,9.89 5.64,2.59 12.01,2.91 18.06,4.02 0.31,1.38 0.27,2.8 -0.03,4.21 -13.73,0.52 -27.48,0.08 -41.21,0.23 -11.74,-0.15 -23.49,0.28 -35.21,-0.23 -0.35,-1.42 -0.36,-2.84 0.01,-4.21 5.95,-1 12.08,-1.43 17.76,-3.59 3.34,-1.32 5.56,-4.76 5.35,-8.35 0.26,-23.99 -0.01,-47.98 0.13,-71.96 0.62,-6.63 0.46,-13.63 -2.39,-19.76 -2.23,-4.83 -7.27,-8.19 -12.61,-8.14 -7.85,-0.34 -15.14,3.93 -20.25,9.61 -8.46,9.47 -13.52,21.61 -15.46,34.08 -1.89,8.26 -1.21,16.75 -1.32,25.15 0.03,10.37 -0.07,20.75 0.03,31.13 -0.18,3.6 2.16,6.95 5.48,8.28 5.25,2.11 11,2.3 16.46,3.58 1.58,0.87 1.55,3.24 -0.07,4.09 -1.93,0.46 -3.92,0.27 -5.87,0.32 -22.36,-0.07 -44.72,0.05 -67.08,-0.03 -2.36,0.63 -4.49,-2.29 -2.7,-4.13 6.45,-2.04 13.92,-1.24 19.77,-5.08 4.22,-2.97 3.33,-8.67 3.38,-13.13 0.04,-24 -0.14,-48 0.12,-71.99 -0.48,-6.65 -1.5,-14.16 -6.7,-18.89 -4.01,-3.67 -10,-3.5 -14.89,-2.03 -7.25,2.06 -12.98,7.46 -17.24,13.47 -5.24,7.62 -9.08,16.26 -10.6,25.42 -3.92,17.74 -2.05,35.98 -2.49,53.98 -0.01,4.64 -0.72,10.71 3.94,13.51 5.61,3.08 12.25,3.15 18.4,4.43 0.25,0.45 0.73,1.37 0.97,1.82 -0.22,0.6 -0.67,1.8 -0.89,2.4 -10.34,0.56 -20.71,0.1 -31.06,0.25 -15.35,-0.07 -30.71,0.15 -46.05,-0.1 -2.59,-0.07 -2.52,-3.09 -1.17,-4.56 6.39,-0.56 12.92,-1.04 19.06,-3.04 3.69,-1.12 6.5,-4.69 6.17,-8.62 0.03,-29.73 0.06,-59.47 0,-89.2 0.12,-3.94 -2.99,-7.24 -6.62,-8.28 -5.27,-1.58 -10.79,-2.09 -16.23,-2.77 -3.41,-0.5 -2.05,-5.71 0.8,-5.77 15.03,-0.56 30.05,-1.39 45.07,-2.2 3.43,-0.38 7.49,1.53 7.8,5.35 0.74,6.87 -0.81,13.78 -0.08,20.68 1.2,2.49 3.09,0.04 3.71,-1.48 3.43,-7.41 9.65,-13.07 16.13,-17.83 z"
       id="path32"
       style="fill:#062f62" />
    <path
       d="m 1333.24,1558.22 c 16.48,-2.28 34.47,2.2 46.65,13.89 11.31,10.97 15.4,27.49 14.63,42.83 0.09,1.86 -1.59,3.47 -3.46,3.08 -25,-0.12 -49.99,0.15 -74.98,0.2 -2.51,0.01 -3.32,2.79 -3.36,4.85 -0.87,12.92 -0.3,26.42 4.96,38.44 3.52,8.14 10.63,14.86 19.38,16.88 13.5,3.04 28.89,-0.57 38.54,-10.81 6.11,-6.4 9.95,-14.75 11.56,-23.4 0.26,-1.85 1.71,-3.95 3.86,-3.45 3.42,0.49 2.38,4.74 2.25,7.19 -2.72,14.49 -13.19,27.16 -26.8,32.79 -16.82,7.03 -36.97,6.79 -53.05,-2.12 -18,-9.6 -30.44,-28.48 -32.71,-48.69 -4.52,-32.53 20.03,-66.34 52.53,-71.68 m 3.2,5.35 c -5.3,1.14 -10.09,4.38 -13.17,8.83 -6.89,9.76 -8.11,22.02 -9.59,33.53 -0.54,2.89 0.76,7.1 4.37,6.85 12.67,0.13 25.34,0.04 38.01,0.03 3.5,0.11 7.95,-0.69 9.17,-4.54 1.61,-5.58 1.51,-11.49 1.17,-17.23 -0.42,-7.96 -2.06,-16.6 -7.96,-22.4 -5.76,-5.59 -14.45,-6.34 -22,-5.07 z"
       id="path34"
       style="fill:#062f62" />
    <path
       d="m 827.08,1560.59 c 5.01,-0.04 9.99,-1.09 14.99,-0.69 2.89,0.42 4.22,3.35 3.94,6.03 0.03,34.05 -0.06,68.11 0.02,102.16 -0.14,3.43 2.57,6.26 5.7,7.26 6.23,2.02 12.85,2.37 19.26,3.58 2.19,0.82 1.43,4.6 -0.95,4.36 -25.34,0.15 -50.69,0.09 -76.02,0.02 -2.5,0.33 -2.56,-2.52 -2.05,-4.17 5.93,-1.67 11.93,-3.12 17.91,-4.63 4.18,-1.08 7.23,-5.09 6.93,-9.44 0.06,-28.73 0.02,-57.46 -0.01,-86.18 0.2,-3.87 -2.23,-7.54 -5.83,-8.91 -5.68,-2.07 -11.79,-2.37 -17.72,-3.23 -1.77,-0.5 -1.28,-2.5 -1.53,-3.84 2.64,-1.03 5.49,-1.03 8.29,-1.07 9.03,-0.19 18.03,-1.09 27.07,-1.25 z"
       id="path36"
       style="fill:#062f62" />
    <path
       d="m 1135.04,1561.59 c 10.65,-0.78 21.34,-0.89 31.98,-1.79 2.78,-0.45 6.63,0.91 6.54,4.27 0.12,34.33 0,68.67 0.07,103 -0.18,3.47 1.9,6.78 5.17,8.03 6.43,2.33 13.36,2.55 20.03,3.85 2.47,1.25 0.81,5.04 -1.78,4.39 -25.04,0.02 -50.08,0.08 -75.11,-0.02 -2.27,0.38 -3.54,-2.84 -1.69,-4.06 5.99,-2.43 12.53,-3.08 18.61,-5.21 3.72,-1.28 5.84,-5.15 5.75,-8.94 0.03,-28.75 0.03,-57.49 0,-86.24 0.19,-4.06 -2.51,-7.83 -6.34,-9.09 -5.54,-1.8 -11.4,-2.3 -17.16,-2.95 -1.75,-0.58 -1.36,-2.62 -1.54,-4 5.01,-1.5 10.32,-0.77 15.47,-1.24 z"
       id="path38"
       style="fill:#062f62" />
  </g>
</svg>
